<svg xmlns="http://www.w3.org/2000/svg" width="964" height="704" viewBox="0 0 964 704" role="img" aria-label="procman --tui">
  <title>procman --tui</title>
  <rect width="964" height="704" rx="6" fill="#0c0c0c"/>
  <g font-family="ui-monospace,SFMono-Regular,Menlo,DejaVu Sans Mono,Consolas,monospace" font-size="13" xml:space="preserve">
    <text x="10" y="23" fill="#2aa198">  0</text>
    <text x="34" y="23" fill="#8a8a8a">[</text>
    <text x="42" y="23" fill="#d04040">|||||||||||||||||||||||||||||||||||||||||||||||||</text>
    <text x="434" y="23" fill="#8a8a8a">100%]</text>
    <text x="474" y="23" fill="#d8d8d8">  </text>
    <text x="490" y="23" fill="#2aa198">  1</text>
    <text x="514" y="23" fill="#8a8a8a">[</text>
    <text x="522" y="23" fill="#3fbf3f">||||||||||||||||||||||||||||||</text>
    <text x="762" y="23" fill="#d8d8d8">                  </text>
    <text x="906" y="23" fill="#8a8a8a">57.5%]</text>
    <text x="10" y="40" fill="#2aa198">  2</text>
    <text x="34" y="40" fill="#8a8a8a">[</text>
    <text x="42" y="40" fill="#c8a02c">|||||||||||||||||||||||||||||||||||||||||||||</text>
    <text x="402" y="40" fill="#d8d8d8">   </text>
    <text x="426" y="40" fill="#8a8a8a">84.6%]</text>
    <text x="474" y="40" fill="#d8d8d8">  </text>
    <text x="490" y="40" fill="#2aa198">  3</text>
    <text x="514" y="40" fill="#8a8a8a">[</text>
    <text x="522" y="40" fill="#3fbf3f">|||||||||||||||||||||</text>
    <text x="690" y="40" fill="#d8d8d8">                           </text>
    <text x="906" y="40" fill="#8a8a8a">39.0%]</text>
    <text x="10" y="57" fill="#2aa198">  4</text>
    <text x="34" y="57" fill="#8a8a8a">[</text>
    <text x="42" y="57" fill="#d04040">||||||||||||||||||||||||||||||||||||||||||||||||</text>
    <text x="426" y="57" fill="#8a8a8a">90.0%]</text>
    <text x="474" y="57" fill="#d8d8d8">  </text>
    <text x="490" y="57" fill="#2aa198">  5</text>
    <text x="514" y="57" fill="#8a8a8a">[</text>
    <text x="522" y="57" fill="#d04040">|||||||||||||||||||||||||||||||||||||||||||||||||</text>
    <text x="914" y="57" fill="#8a8a8a">100%]</text>
    <text x="10" y="74" fill="#2aa198">  6</text>
    <text x="34" y="74" fill="#8a8a8a">[</text>
    <text x="42" y="74" fill="#c8a02c">||||||||||||||||||||||||||||||||||||||</text>
    <text x="346" y="74" fill="#d8d8d8">          </text>
    <text x="426" y="74" fill="#8a8a8a">71.8%]</text>
    <text x="474" y="74" fill="#d8d8d8">  </text>
    <text x="490" y="74" fill="#2aa198">  7</text>
    <text x="514" y="74" fill="#8a8a8a">[</text>
    <text x="522" y="74" fill="#d04040">|||||||||||||||||||||||||||||||||||||||||||||||||</text>
    <text x="914" y="74" fill="#8a8a8a">100%]</text>
    <text x="10" y="91" fill="#2aa198">  8</text>
    <text x="34" y="91" fill="#8a8a8a">[</text>
    <text x="42" y="91" fill="#c8a02c">||||||||||||||||||||||||||||||||||</text>
    <text x="314" y="91" fill="#d8d8d8">              </text>
    <text x="426" y="91" fill="#8a8a8a">65.0%]</text>
    <text x="474" y="91" fill="#d8d8d8">  </text>
    <text x="490" y="91" fill="#2aa198">  9</text>
    <text x="514" y="91" fill="#8a8a8a">[</text>
    <text x="522" y="91" fill="#d04040">|||||||||||||||||||||||||||||||||||||||||||||||||</text>
    <text x="914" y="91" fill="#8a8a8a">100%]</text>
    <text x="10" y="108" fill="#2aa198"> 10</text>
    <text x="34" y="108" fill="#8a8a8a">[</text>
    <text x="42" y="108" fill="#d04040">|||||||||||||||||||||||||||||||||||||||||||||||||</text>
    <text x="434" y="108" fill="#8a8a8a">100%]</text>
    <text x="474" y="108" fill="#d8d8d8">  </text>
    <text x="490" y="108" fill="#2aa198"> 11</text>
    <text x="514" y="108" fill="#8a8a8a">[</text>
    <text x="522" y="108" fill="#d04040">|||||||||||||||||||||||||||||||||||||||||||||||||</text>
    <text x="914" y="108" fill="#8a8a8a">100%]</text>
    <text x="10" y="125" fill="#2aa198"> 12</text>
    <text x="34" y="125" fill="#8a8a8a">[</text>
    <text x="42" y="125" fill="#d04040">|||||||||||||||||||||||||||||||||||||||||||||||||</text>
    <text x="434" y="125" fill="#8a8a8a">100%]</text>
    <text x="474" y="125" fill="#d8d8d8">  </text>
    <text x="490" y="125" fill="#2aa198"> 13</text>
    <text x="514" y="125" fill="#8a8a8a">[</text>
    <text x="522" y="125" fill="#d04040">|||||||||||||||||||||||||||||||||||||||||||||||||</text>
    <text x="914" y="125" fill="#8a8a8a">100%]</text>
    <text x="10" y="142" fill="#2aa198"> 14</text>
    <text x="34" y="142" fill="#8a8a8a">[</text>
    <text x="42" y="142" fill="#d04040">||||||||||||||||||||||||||||||||||||||||||||||||</text>
    <text x="426" y="142" fill="#8a8a8a">97.4%]</text>
    <text x="474" y="142" fill="#d8d8d8">  </text>
    <text x="490" y="142" fill="#2aa198"> 15</text>
    <text x="514" y="142" fill="#8a8a8a">[</text>
    <text x="522" y="142" fill="#c8a02c">|||||||||||||||||||||||||||||||||||</text>
    <text x="802" y="142" fill="#d8d8d8">             </text>
    <text x="906" y="142" fill="#8a8a8a">66.7%]</text>
    <text x="10" y="159" fill="#2aa198">Mem</text>
    <text x="34" y="159" fill="#8a8a8a">[</text>
    <text x="42" y="159" fill="#c8a02c">||||||||||||||||||||||||||||||||||||</text>
    <text x="330" y="159" fill="#d8d8d8">       </text>
    <text x="386" y="159" fill="#8a8a8a">85.6G/125G]</text>
    <text x="474" y="159" fill="#d8d8d8">  </text>
    <text x="490" y="159" fill="#2aa198">Swp</text>
    <text x="514" y="159" fill="#8a8a8a">[</text>
    <text x="522" y="159" fill="#3fbf3f">|||</text>
    <text x="546" y="159" fill="#d8d8d8">                                        </text>
    <text x="866" y="159" fill="#8a8a8a">3.5G/64.0G]</text>
    <text x="10" y="176" fill="#8a8a8a">Tasks: 15, 18 running</text>
    <text x="178" y="176" fill="#d8d8d8">           </text>
    <text x="266" y="176" fill="#8a8a8a">Load average: 31.88 41.37 47.01</text>
    <text x="514" y="176" fill="#d8d8d8">     </text>
    <text x="554" y="176" fill="#8a8a8a">Uptime: 2d 19:05:44</text>
    <rect x="10" y="197" width="912" height="17" fill="#2aa198"/>
    <text x="10" y="210" fill="#0c2b2b">    PID User       S      CPU% CPU hist     Private Mem hist       Read/s  Write/s I/O hist      Thr   Hnd Process</text>
    <rect x="10" y="214" width="912" height="17" fill="#d8d8d8"/>
    <text x="10" y="227" fill="#0c0c0c">      1 hawky      run     0.2 ▁▁ ▁ ▁▁▁▁▁▁▁   66.4M ████████████        0        0                 7     … procman</text>
    <text x="10" y="244" fill="#d8d8d8">     21 hawky      run     6.2 </text>
    <text x="258" y="244" fill="#3fbf3f">███▇████████</text>
    <text x="354" y="244" fill="#d8d8d8">   16.4M </text>
    <text x="426" y="244" fill="#2aa198">▂▂▂▂▂▂▂▂▂▂▂▂</text>
    <text x="522" y="244" fill="#d8d8d8">        0        0 </text>
    <text x="674" y="244" fill="#c8a02c">            </text>
    <text x="770" y="244" fill="#d8d8d8">    1     … sort</text>
    <text x="10" y="261" fill="#d8d8d8">      9 hawky      run     6.2 </text>
    <text x="258" y="261" fill="#3fbf3f">███▇████████</text>
    <text x="354" y="261" fill="#d8d8d8">    304K </text>
    <text x="426" y="261" fill="#2aa198">▁▁▁▁▁▁▁▁▁▁▁▁</text>
    <text x="522" y="261" fill="#d8d8d8">        0        0 </text>
    <text x="674" y="261" fill="#c8a02c">            </text>
    <text x="770" y="261" fill="#d8d8d8">    1     … bash</text>
    <text x="10" y="278" fill="#d8d8d8">     12 hawky      run     6.2 </text>
    <text x="258" y="278" fill="#3fbf3f">████████████</text>
    <text x="354" y="278" fill="#d8d8d8">    304K </text>
    <text x="426" y="278" fill="#2aa198">▁▁▁▁▁▁▁▁▁▁▁▁</text>
    <text x="522" y="278" fill="#d8d8d8">        0        0 </text>
    <text x="674" y="278" fill="#c8a02c">            </text>
    <text x="770" y="278" fill="#d8d8d8">    1     … bash</text>
    <text x="10" y="295" fill="#d8d8d8">      6 hawky      run     6.1 </text>
    <text x="258" y="295" fill="#3fbf3f">████████████</text>
    <text x="354" y="295" fill="#d8d8d8">    304K </text>
    <text x="426" y="295" fill="#2aa198">▁▁▁▁▁▁▁▁▁▁▁▁</text>
    <text x="522" y="295" fill="#d8d8d8">        0        0 </text>
    <text x="674" y="295" fill="#c8a02c">            </text>
    <text x="770" y="295" fill="#d8d8d8">    1     … bash</text>
    <text x="10" y="312" fill="#d8d8d8">     15 hawky      run     6.2 </text>
    <text x="258" y="312" fill="#3fbf3f">████████████</text>
    <text x="354" y="312" fill="#d8d8d8">    1.2M </text>
    <text x="426" y="312" fill="#2aa198">▁▁▁▁▁▁▁▁▁▁▁▁</text>
    <text x="522" y="312" fill="#d8d8d8">        0        0 </text>
    <text x="674" y="312" fill="#c8a02c">            </text>
    <text x="770" y="312" fill="#d8d8d8">    1     … dd</text>
    <text x="10" y="329" fill="#d8d8d8">     23 hawky      sleep   0.0 </text>
    <text x="258" y="329" fill="#3fbf3f">            </text>
    <text x="354" y="329" fill="#d8d8d8">    204K </text>
    <text x="426" y="329" fill="#2aa198">▁▁▁▁▁▁▁▁▁▁▁▁</text>
    <text x="522" y="329" fill="#d8d8d8">        0        0 </text>
    <text x="674" y="329" fill="#c8a02c">            </text>
    <text x="770" y="329" fill="#d8d8d8">    1     … sleep</text>
    <text x="10" y="346" fill="#d8d8d8">      3 hawky      sleep   0.0 </text>
    <text x="258" y="346" fill="#3fbf3f">            </text>
    <text x="354" y="346" fill="#d8d8d8">    204K </text>
    <text x="426" y="346" fill="#2aa198">▁▁▁▁▁▁▁▁▁▁▁▁</text>
    <text x="522" y="346" fill="#d8d8d8">        0        0 </text>
    <text x="674" y="346" fill="#c8a02c">            </text>
    <text x="770" y="346" fill="#d8d8d8">    1     … timeout</text>
    <text x="10" y="363" fill="#d8d8d8">      5 hawky      sleep   0.0 </text>
    <text x="258" y="363" fill="#3fbf3f">            </text>
    <text x="354" y="363" fill="#d8d8d8">    204K </text>
    <text x="426" y="363" fill="#2aa198">▁▁▁▁▁▁▁▁▁▁▁▁</text>
    <text x="522" y="363" fill="#d8d8d8">        0        0 </text>
    <text x="674" y="363" fill="#c8a02c">            </text>
    <text x="770" y="363" fill="#d8d8d8">    1     … timeout</text>
    <text x="10" y="380" fill="#d8d8d8">     17 hawky      sleep   0.0 </text>
    <text x="258" y="380" fill="#3fbf3f">            </text>
    <text x="354" y="380" fill="#d8d8d8">    204K </text>
    <text x="426" y="380" fill="#2aa198">▁▁▁▁▁▁▁▁▁▁▁▁</text>
    <text x="522" y="380" fill="#d8d8d8">        0        0 </text>
    <text x="674" y="380" fill="#c8a02c">            </text>
    <text x="770" y="380" fill="#d8d8d8">    1     … timeout</text>
    <text x="10" y="397" fill="#d8d8d8">     20 hawky      sleep   0.0 </text>
    <text x="258" y="397" fill="#3fbf3f">            </text>
    <text x="354" y="397" fill="#d8d8d8">    204K </text>
    <text x="426" y="397" fill="#2aa198">▁▁▁▁▁▁▁▁▁▁▁▁</text>
    <text x="522" y="397" fill="#d8d8d8">        0        0 </text>
    <text x="674" y="397" fill="#c8a02c">            </text>
    <text x="770" y="397" fill="#d8d8d8">    1     … timeout</text>
    <text x="10" y="414" fill="#d8d8d8">      8 hawky      sleep   0.0 </text>
    <text x="258" y="414" fill="#3fbf3f">            </text>
    <text x="354" y="414" fill="#d8d8d8">    204K </text>
    <text x="426" y="414" fill="#2aa198">▁▁▁▁▁▁▁▁▁▁▁▁</text>
    <text x="522" y="414" fill="#d8d8d8">        0        0 </text>
    <text x="674" y="414" fill="#c8a02c">            </text>
    <text x="770" y="414" fill="#d8d8d8">    1     … timeout</text>
    <text x="10" y="431" fill="#d8d8d8">     11 hawky      sleep   0.0 </text>
    <text x="258" y="431" fill="#3fbf3f">            </text>
    <text x="354" y="431" fill="#d8d8d8">    204K </text>
    <text x="426" y="431" fill="#2aa198">▁▁▁▁▁▁▁▁▁▁▁▁</text>
    <text x="522" y="431" fill="#d8d8d8">        0        0 </text>
    <text x="674" y="431" fill="#c8a02c">            </text>
    <text x="770" y="431" fill="#d8d8d8">    1     … timeout</text>
    <text x="10" y="448" fill="#d8d8d8">     14 hawky      sleep   0.0 </text>
    <text x="258" y="448" fill="#3fbf3f">            </text>
    <text x="354" y="448" fill="#d8d8d8">    204K </text>
    <text x="426" y="448" fill="#2aa198">▁▁▁▁▁▁▁▁▁▁▁▁</text>
    <text x="522" y="448" fill="#d8d8d8">        0        0 </text>
    <text x="674" y="448" fill="#c8a02c">            </text>
    <text x="770" y="448" fill="#d8d8d8">    1     … timeout</text>
    <text x="10" y="465" fill="#d8d8d8">     19 hawky      run     6.1 </text>
    <text x="258" y="465" fill="#3fbf3f">████████████</text>
    <text x="354" y="465" fill="#d8d8d8">    872K </text>
    <text x="426" y="465" fill="#2aa198">▁▁▁▁▁▁▁▁▁▁▁▁</text>
    <text x="522" y="465" fill="#d8d8d8">        0        0 </text>
    <text x="674" y="465" fill="#c8a02c">            </text>
    <text x="770" y="465" fill="#d8d8d8">    1     … gzip</text>
    <rect x="10" y="673" width="880" height="17" fill="#2aa198"/>
    <text x="10" y="686" fill="#0c2b2b">F5 tree  F6 sort  e end task  k kill  K kill tree  R restart  s class  / search  u user  Enter details  q quit</text>
  </g>
</svg>
